<mxfile host="Electron" agent="Mozilla/5.0 (Windows NT 10.0; Win64; x64) AppleWebKit/537.36 (KHTML, like Gecko) draw.io/24.7.5 Chrome/126.0.6478.183 Electron/31.3.0 Safari/537.36" version="24.7.5">
  <diagram name="Página-1" id="s3OMrO0p6jmiYu_DmSFK">
    <mxGraphModel dx="1427" dy="2693" grid="1" gridSize="10" guides="1" tooltips="1" connect="1" arrows="1" fold="1" page="1" pageScale="1" pageWidth="827" pageHeight="1169" math="0" shadow="0">
      <root>
        <mxCell id="0" />
        <mxCell id="1" parent="0" />
        <mxCell id="3x31MsnCpi4qH06DEA2G-73" style="edgeStyle=orthogonalEdgeStyle;rounded=0;orthogonalLoop=1;jettySize=auto;html=1;entryX=0.5;entryY=0;entryDx=0;entryDy=0;" parent="1" source="3x31MsnCpi4qH06DEA2G-2" target="3x31MsnCpi4qH06DEA2G-37" edge="1">
          <mxGeometry relative="1" as="geometry" />
        </mxCell>
        <mxCell id="3x31MsnCpi4qH06DEA2G-2" value="" style="rounded=0;whiteSpace=wrap;html=1;" parent="1" vertex="1">
          <mxGeometry x="80" y="-1169" width="302.5" height="90" as="geometry" />
        </mxCell>
        <mxCell id="3x31MsnCpi4qH06DEA2G-3" value="&lt;span style=&quot;font-size: 14px;&quot;&gt;&lt;b&gt;IDS_SNORT&lt;/b&gt;&lt;/span&gt;" style="text;html=1;align=center;verticalAlign=middle;whiteSpace=wrap;rounded=0;fontFamily=Helvetica;fontSize=26;fontColor=default;" parent="1" vertex="1">
          <mxGeometry x="172.06" y="-1166" width="118.38" height="20" as="geometry" />
        </mxCell>
        <mxCell id="3x31MsnCpi4qH06DEA2G-4" value="&lt;span style=&quot;font-weight: normal;&quot;&gt;&lt;font size=&quot;1&quot; style=&quot;&quot;&gt;&lt;i style=&quot;font-size: 14px;&quot;&gt;Analiza el número de paquetes del tráfico sospechoso que ingresan a los conmutadores&lt;/i&gt;&lt;/font&gt;&lt;/span&gt;" style="text;whiteSpace=wrap;html=1;align=center;fontStyle=1;fontSize=10;" parent="1" vertex="1">
          <mxGeometry x="83.23" y="-1146" width="290" height="50" as="geometry" />
        </mxCell>
        <mxCell id="3x31MsnCpi4qH06DEA2G-40" value="" style="edgeStyle=orthogonalEdgeStyle;rounded=0;orthogonalLoop=1;jettySize=auto;html=1;" parent="1" source="3x31MsnCpi4qH06DEA2G-37" target="3x31MsnCpi4qH06DEA2G-39" edge="1">
          <mxGeometry relative="1" as="geometry" />
        </mxCell>
        <mxCell id="94CjwlbmknySxOoL_Qpq-2" value="" style="edgeStyle=orthogonalEdgeStyle;rounded=0;orthogonalLoop=1;jettySize=auto;html=1;endArrow=none;endFill=0;dashed=1;startArrow=classic;startFill=1;" edge="1" parent="1" source="3x31MsnCpi4qH06DEA2G-37" target="94CjwlbmknySxOoL_Qpq-1">
          <mxGeometry relative="1" as="geometry" />
        </mxCell>
        <mxCell id="3x31MsnCpi4qH06DEA2G-37" value="&lt;p style=&quot;line-height: 90%;&quot;&gt;&lt;b style=&quot;&quot;&gt;&lt;font style=&quot;font-size: 13px;&quot;&gt;Trafico analizado por el IDS&lt;/font&gt;&lt;/b&gt;&lt;/p&gt;" style="text;html=1;align=center;verticalAlign=middle;whiteSpace=wrap;rounded=0;fontFamily=Helvetica;fontSize=26;fillColor=none;strokeColor=default;" parent="1" vertex="1">
          <mxGeometry x="-355.2099999999999" y="-1089" width="186.78" height="30" as="geometry" />
        </mxCell>
        <mxCell id="3x31MsnCpi4qH06DEA2G-51" style="edgeStyle=orthogonalEdgeStyle;rounded=0;orthogonalLoop=1;jettySize=auto;html=1;entryX=0.5;entryY=0;entryDx=0;entryDy=0;" parent="1" source="3x31MsnCpi4qH06DEA2G-39" target="3x31MsnCpi4qH06DEA2G-44" edge="1">
          <mxGeometry relative="1" as="geometry" />
        </mxCell>
        <mxCell id="3x31MsnCpi4qH06DEA2G-61" style="edgeStyle=orthogonalEdgeStyle;rounded=0;orthogonalLoop=1;jettySize=auto;html=1;entryX=0.5;entryY=0;entryDx=0;entryDy=0;" parent="1" source="3x31MsnCpi4qH06DEA2G-39" target="3x31MsnCpi4qH06DEA2G-58" edge="1">
          <mxGeometry relative="1" as="geometry" />
        </mxCell>
        <mxCell id="3x31MsnCpi4qH06DEA2G-39" value="&lt;font style=&quot;font-size: 12px;&quot;&gt;&lt;span style=&quot;font-family: &amp;quot;Arial Narrow&amp;quot;, sans-serif; text-align: justify; background-color: initial;&quot;&gt;&lt;br&gt;&lt;/span&gt;&lt;/font&gt;&lt;p style=&quot;margin-left:36.0pt;text-align:justify&quot; class=&quot;MsoNormal&quot;&gt;&lt;span style=&quot;font-family:&amp;quot;Arial Narrow&amp;quot;,sans-serif&quot; lang=&quot;ES&quot;&gt;&lt;/span&gt;&lt;/p&gt;" style="rhombus;whiteSpace=wrap;html=1;" parent="1" vertex="1">
          <mxGeometry x="-306.76" y="-1031.5" width="89.89" height="73.5" as="geometry" />
        </mxCell>
        <mxCell id="3x31MsnCpi4qH06DEA2G-42" value="&lt;span style=&quot;text-wrap: wrap;&quot;&gt;n_pakts&amp;nbsp;&lt;/span&gt;&lt;span style=&quot;text-wrap: wrap; background-color: initial; font-family: &amp;quot;Arial Narrow&amp;quot;, sans-serif; text-align: justify;&quot;&gt;≥ 500 en 1s&lt;/span&gt;" style="text;html=1;align=center;verticalAlign=middle;resizable=0;points=[];autosize=1;strokeColor=none;fillColor=none;fontStyle=2" parent="1" vertex="1">
          <mxGeometry x="-321.81999999999994" y="-1009.75" width="120" height="30" as="geometry" />
        </mxCell>
        <mxCell id="3x31MsnCpi4qH06DEA2G-53" value="" style="edgeStyle=orthogonalEdgeStyle;rounded=0;orthogonalLoop=1;jettySize=auto;html=1;" parent="1" source="3x31MsnCpi4qH06DEA2G-44" target="3x31MsnCpi4qH06DEA2G-52" edge="1">
          <mxGeometry relative="1" as="geometry" />
        </mxCell>
        <mxCell id="3x31MsnCpi4qH06DEA2G-44" value="&lt;font style=&quot;font-size: 11px;&quot;&gt;&lt;b&gt;Alerta Generada&lt;/b&gt;&lt;br&gt;&lt;i&gt;Ataque DoS Detectado&lt;/i&gt;&lt;/font&gt;" style="rounded=0;whiteSpace=wrap;html=1;" parent="1" vertex="1">
          <mxGeometry x="-211.61" y="-974" width="146.22" height="38.5" as="geometry" />
        </mxCell>
        <mxCell id="3x31MsnCpi4qH06DEA2G-56" value="" style="edgeStyle=orthogonalEdgeStyle;rounded=0;orthogonalLoop=1;jettySize=auto;html=1;" parent="1" source="3x31MsnCpi4qH06DEA2G-52" target="3x31MsnCpi4qH06DEA2G-54" edge="1">
          <mxGeometry relative="1" as="geometry" />
        </mxCell>
        <mxCell id="3x31MsnCpi4qH06DEA2G-52" value="&lt;font style=&quot;font-size: 11px;&quot;&gt;&lt;b&gt;Extraer Información del Atacante&lt;/b&gt;&lt;br&gt;&lt;i&gt;IPv4: IP Origen, IP destino&lt;br&gt;MAC: MAC origen, MAC destino&lt;/i&gt;&lt;/font&gt;" style="rounded=0;whiteSpace=wrap;html=1;" parent="1" vertex="1">
          <mxGeometry x="-226.60999999999996" y="-915.75" width="176.22" height="58.5" as="geometry" />
        </mxCell>
        <mxCell id="3x31MsnCpi4qH06DEA2G-67" style="edgeStyle=orthogonalEdgeStyle;rounded=0;orthogonalLoop=1;jettySize=auto;html=1;entryX=0.5;entryY=0;entryDx=0;entryDy=0;" parent="1" source="3x31MsnCpi4qH06DEA2G-54" target="3x31MsnCpi4qH06DEA2G-65" edge="1">
          <mxGeometry relative="1" as="geometry">
            <Array as="points">
              <mxPoint x="-138.39000000000001" y="-734" />
              <mxPoint x="-261.39" y="-734" />
            </Array>
          </mxGeometry>
        </mxCell>
        <mxCell id="3x31MsnCpi4qH06DEA2G-54" value="&lt;font style=&quot;font-size: 11px;&quot;&gt;&lt;b&gt;Enviar alerta al controlador&lt;/b&gt;&lt;br&gt;Contiene la informacion del atacante obtenida por el IDS&lt;/font&gt;" style="rounded=0;whiteSpace=wrap;html=1;" parent="1" vertex="1">
          <mxGeometry x="-229.00000000000006" y="-824" width="181" height="60" as="geometry" />
        </mxCell>
        <mxCell id="3x31MsnCpi4qH06DEA2G-66" style="edgeStyle=orthogonalEdgeStyle;rounded=0;orthogonalLoop=1;jettySize=auto;html=1;entryX=0.5;entryY=0;entryDx=0;entryDy=0;" parent="1" source="3x31MsnCpi4qH06DEA2G-58" target="3x31MsnCpi4qH06DEA2G-65" edge="1">
          <mxGeometry relative="1" as="geometry">
            <Array as="points">
              <mxPoint x="-395.39" y="-734" />
              <mxPoint x="-261.39" y="-734" />
            </Array>
          </mxGeometry>
        </mxCell>
        <mxCell id="3x31MsnCpi4qH06DEA2G-58" value="&lt;span style=&quot;font-size: 11px;&quot;&gt;&lt;b&gt;Trafico Normal&lt;/b&gt;&lt;br&gt;&lt;i&gt;No genera ninguna alerta&lt;/i&gt;&lt;/span&gt;" style="rounded=0;whiteSpace=wrap;html=1;" parent="1" vertex="1">
          <mxGeometry x="-468.03999999999996" y="-905.75" width="146.22" height="38.5" as="geometry" />
        </mxCell>
        <mxCell id="3x31MsnCpi4qH06DEA2G-62" value="&lt;i&gt;si&lt;/i&gt;" style="text;html=1;align=center;verticalAlign=middle;whiteSpace=wrap;rounded=0;" parent="1" vertex="1">
          <mxGeometry x="-185.17000000000002" y="-1019" width="23.78" height="20" as="geometry" />
        </mxCell>
        <mxCell id="3x31MsnCpi4qH06DEA2G-63" value="&lt;i&gt;no&lt;/i&gt;" style="text;html=1;align=center;verticalAlign=middle;whiteSpace=wrap;rounded=0;" parent="1" vertex="1">
          <mxGeometry x="-361.81999999999994" y="-1019" width="40" height="20" as="geometry" />
        </mxCell>
        <mxCell id="3x31MsnCpi4qH06DEA2G-71" style="edgeStyle=orthogonalEdgeStyle;rounded=0;orthogonalLoop=1;jettySize=auto;html=1;entryX=0;entryY=0.5;entryDx=0;entryDy=0;" parent="1" source="3x31MsnCpi4qH06DEA2G-65" target="3x31MsnCpi4qH06DEA2G-37" edge="1">
          <mxGeometry relative="1" as="geometry">
            <Array as="points">
              <mxPoint x="-488.03999999999996" y="-693" />
              <mxPoint x="-488.03999999999996" y="-1074" />
            </Array>
          </mxGeometry>
        </mxCell>
        <mxCell id="3x31MsnCpi4qH06DEA2G-65" value="&lt;b style=&quot;font-size: 11px;&quot;&gt;Snort continua analizando el tráfico&lt;/b&gt;" style="rounded=0;whiteSpace=wrap;html=1;" parent="1" vertex="1">
          <mxGeometry x="-321.80999999999995" y="-712" width="120" height="38" as="geometry" />
        </mxCell>
        <mxCell id="uqmx0J0vCGjWTDLTTVXI-2" value="" style="endArrow=classic;html=1;rounded=0;exitX=1;exitY=0.5;exitDx=0;exitDy=0;" parent="1" source="3x31MsnCpi4qH06DEA2G-54" edge="1">
          <mxGeometry width="50" height="50" relative="1" as="geometry">
            <mxPoint x="70" y="-860" as="sourcePoint" />
            <mxPoint x="20" y="-794" as="targetPoint" />
          </mxGeometry>
        </mxCell>
        <mxCell id="uqmx0J0vCGjWTDLTTVXI-3" value="" style="rounded=0;whiteSpace=wrap;html=1;" parent="1" vertex="1">
          <mxGeometry x="19.999999999999993" y="-839" width="302.5" height="90" as="geometry" />
        </mxCell>
        <mxCell id="uqmx0J0vCGjWTDLTTVXI-4" value="&lt;span style=&quot;font-size: 14px;&quot;&gt;&lt;b&gt;IDS_SNORT&lt;/b&gt;&lt;/span&gt;" style="text;html=1;align=center;verticalAlign=middle;whiteSpace=wrap;rounded=0;fontFamily=Helvetica;fontSize=26;fontColor=default;" parent="1" vertex="1">
          <mxGeometry x="112.05999999999999" y="-836" width="118.38" height="20" as="geometry" />
        </mxCell>
        <mxCell id="uqmx0J0vCGjWTDLTTVXI-5" value="&lt;span style=&quot;font-weight: normal;&quot;&gt;&lt;font size=&quot;1&quot; style=&quot;&quot;&gt;&lt;i style=&quot;font-size: 14px;&quot;&gt;Envia la alerta mediante un socket TCP&amp;nbsp; al puerto 51234 del controlador&lt;/i&gt;&lt;/font&gt;&lt;/span&gt;" style="text;whiteSpace=wrap;html=1;align=center;fontStyle=1;fontSize=10;" parent="1" vertex="1">
          <mxGeometry x="23.229999999999997" y="-816" width="290" height="50" as="geometry" />
        </mxCell>
        <mxCell id="94CjwlbmknySxOoL_Qpq-1" value="&lt;p style=&quot;line-height: 90%;&quot;&gt;&lt;font style=&quot;font-size: 13px;&quot;&gt;Reglas definidas en el IDS&lt;/font&gt;&lt;/p&gt;" style="text;html=1;align=center;verticalAlign=middle;whiteSpace=wrap;rounded=0;fontFamily=Helvetica;fontSize=26;fillColor=none;strokeColor=default;dashed=1;" vertex="1" parent="1">
          <mxGeometry x="-119.99999999999991" y="-1089" width="186.78" height="30" as="geometry" />
        </mxCell>
      </root>
    </mxGraphModel>
  </diagram>
</mxfile>
